<?xml version="1.0" encoding="UTF-8" standalone="no"?><!DOCTYPE svg PUBLIC "-//W3C//DTD SVG 1.1//EN" "http://www.w3.org/Graphics/SVG/1.1/DTD/svg11.dtd"><svg width="100%" height="100%" viewBox="0 0 30 50" version="1.1" xmlns="http://www.w3.org/2000/svg" xmlns:xlink="http://www.w3.org/1999/xlink" xml:space="preserve" xmlns:serif="http://www.serif.com/" style="fill-rule:evenodd;clip-rule:evenodd;stroke-linejoin:round;stroke-miterlimit:2;"><path d="M1.218,22c-0.586,0.585 -0.916,1.38 -0.917,2.208l0,1.584c0.01,0.826 0.338,1.617 0.917,2.208l21.416,21.375c0.392,0.394 0.924,0.616 1.48,0.616c0.555,0 1.088,-0.222 1.479,-0.616l2.958,-2.958c0.392,-0.384 0.613,-0.91 0.613,-1.459c-0,-0.548 -0.221,-1.074 -0.613,-1.458l-18.542,-18.5l18.542,-18.5c0.394,-0.391 0.616,-0.924 0.616,-1.479c0,-0.556 -0.222,-1.088 -0.616,-1.479l-2.958,-2.917c-0.391,-0.395 -0.924,-0.616 -1.479,-0.616c-0.556,-0 -1.088,0.221 -1.48,0.616l-21.416,21.375Z" style="fill:#7c7c7c;fill-rule:nonzero;"/></svg>