<svg version="1.1" xmlns="http://www.w3.org/2000/svg" xmlns:xlink="http://www.w3.org/1999/xlink" x="0px" y="0px" viewBox="0 0 1000 1000" enable-background="new 0 0 1000 1000" xml:space="preserve">
<g><g transform="translate(0.000000,512.000000) scale(0.100000,-0.100000)"><path d="M4295.9,4994.4c-28.7-13.4-344.6-471-846.3-1223.5l-802.3-1202.4H1439.2H231.1l-65.1-65.1c-70.8-70.8-84.3-141.7-42.1-231.7c34.5-78.5,109.1-105.3,283.4-105.3c84.3,0,153.2-3.8,153.2-7.7c0-5.7,233.6-865.4,518.9-1910.8c327.4-1198.6,539.9-1947.2,576.3-2023.8c78.5-162.8,271.9-358,438.5-438.4c245.1-120.6,231.7-118.7,1564.3-118.7h1213.9l65.1,65.1c45.9,46,65.1,82.3,65.1,124.5c0,74.7-44,162.7-90,185.7c-19.1,9.6-585.9,21.1-1259.8,26.8l-1225.4,9.6l-130.2,63.2c-134,67-248.9,183.8-296.8,302.5c-11.5,30.6-243.2,865.4-511.2,1855.3c-270,989.9-494,1815.1-499.7,1832.3c-9.6,32.5,189.5,34.5,3800.6,34.5c3287.5,0,3812.1-3.8,3812.1-26.8c0-15.3-107.2-423.1-239.3-905.6c-132.1-482.5-239.3-901.8-239.3-930.5c0-38.3,21.1-76.6,65.1-120.6c84.2-84.2,176.1-88.1,262.3-11.5c57.4,49.8,74.7,109.1,323.6,1020.5l262.3,965l174.2,9.6c191.5,11.5,235.5,34.5,271.9,143.6c17.2,49.8,15.3,78.5-7.7,130.2c-53.6,132.1-9.6,128.3-1336.4,128.3l-1192.8,1.9l-794.6,1192.8c-486.3,731.4-813.7,1206.2-846.3,1225.4c-84.2,51.7-164.6,38.3-237.4-34.5c-124.5-124.4-147.4-78.5,662.5-1294.3l727.6-1091.4H4799.5c-1319.2,0-1654.3,5.7-1642.8,24.9c7.6,11.5,323.6,488.2,702.7,1055c379.1,568.7,700.8,1062.6,716.1,1099C4644.4,4914,4462.5,5074.8,4295.9,4994.4z"/><path d="M7397.7-305.4c-331.2-38.3-712.2-181.9-999.4-375.3c-664.4-444.2-1056.9-1275.2-976.5-2056.3c59.3-559.1,252.7-972.7,643.3-1367.1c277.6-281.5,530.4-444.2,859.7-555.3c823.3-275.7,1709.8-70.8,2316.7,538c608.8,607,813.7,1493.4,538,2316.7c-111,329.3-273.8,582.1-555.2,859.7c-386.8,382.9-800.3,580.1-1338.4,639.5C7681-282.4,7602.5-282.4,7397.7-305.4z M8037.2-741.9c1016.7-210.6,1658.1-1250.3,1397.7-2265c-80.4-306.3-233.6-564.8-488.2-819.5c-206.8-206.8-344.6-302.5-589.7-405.9c-796.5-342.7-1755.7-44-2240.1,698.9c-292.9,449.9-373.4,1035.8-210.6,1545.1c202.9,637.6,741,1122,1393.9,1254.1C7487.6-696,7834.2-699.8,8037.2-741.9z"/><path d="M7573.8-1536.5c-105.3-47.9-120.6-103.4-120.6-471V-2333h-325.5c-371.5,0-425.1-13.4-471-128.3c-38.3-88.1-19.2-164.7,53.6-225.9c55.5-47.9,61.3-47.9,400.2-47.9h342.7v-346.6v-346.6l65.1-65.1c45.9-46,82.3-65.1,126.4-65.1c67,0,162.7,47.9,185.7,93.8c7.6,17.2,19.1,185.7,24.9,375.3l9.6,344.6l344.6,9.6c189.6,5.7,358,17.2,375.3,24.9c46,23,93.8,118.7,93.8,185.7c0,44-19.1,80.4-65.1,126.4l-65.1,65.1h-346.6h-346.5v344.6v344.6l-51.7,57.4C7740.4-1517.4,7658.1-1500.1,7573.8-1536.5z"/></g></g>
</svg>