<?xml version="1.0" encoding="UTF-8" standalone="no"?><!DOCTYPE svg PUBLIC "-//W3C//DTD SVG 1.1//EN" "http://www.w3.org/Graphics/SVG/1.1/DTD/svg11.dtd"><svg width="100%" height="100%" viewBox="0 0 405 268" version="1.1" xmlns="http://www.w3.org/2000/svg" xmlns:xlink="http://www.w3.org/1999/xlink" xml:space="preserve" xmlns:serif="http://www.serif.com/" style="fill-rule:evenodd;clip-rule:evenodd;stroke-linejoin:round;stroke-miterlimit:2;"><rect x="0" y="0" width="404.346" height="267.697" style="fill:none;"/><rect x="32.5" y="134.583" width="137.083" height="48.75"/><rect x="32.5" y="75.417" width="137.083" height="48.75"/><path d="M376.25,65l0,-34.167c0,-7.916 -6.667,-14.583 -14.583,-14.583l-315,0c-7.917,0 -14.584,6.667 -14.584,14.583l0,34.167l344.167,0Z" style="fill-rule:nonzero;"/><path d="M375.833,193.333l-137.083,0l-0,48.75l122.5,0c7.917,0 14.583,-6.666 14.583,-14.583l0,-34.167Z" style="fill-rule:nonzero;"/><path d="M228.75,75.417l-48.75,-0l0,112.916c0,2.917 -2.5,5.417 -5.417,5.417l-142.083,0l0,34.167c0,7.916 6.667,14.583 14.583,14.583l181.667,0l0,-167.083Z" style="fill-rule:nonzero;"/><rect x="238.75" y="75.417" width="137.083" height="48.75"/><path d="M238.75,134.583l0,48.75l137.083,0l0,-48.75l-137.083,0Z" style="fill-rule:nonzero;"/></svg>