<svg version="1.1" xmlns="http://www.w3.org/2000/svg" xmlns:xlink="http://www.w3.org/1999/xlink" x="0px" y="0px" viewBox="0 0 1000 1000" enable-background="new 0 0 1000 1000" xml:space="preserve">
<g><g><path d="M928.7,10c17.5,0,32.1,5.8,43.8,17.5C984.2,39.1,990,53.7,990,71.3c0,17.2-5.9,31.7-17.7,43.5L586.6,500l385.7,385.2c11.8,11.8,17.7,26.3,17.7,43.5c0,17.5-5.8,32.1-17.5,43.8c-11.6,11.6-26.2,17.5-43.8,17.5c-17.2,0-31.7-5.9-43.5-17.7L500,586.6L114.8,972.3C103,984.1,88.5,990,71.3,990c-17.5,0-32.1-5.8-43.8-17.5C15.8,960.9,10,946.3,10,928.7c0-17.2,5.9-31.7,17.7-43.5L413.4,500L27.7,114.8C15.9,103,10,88.5,10,71.3c0-17.5,5.8-32.1,17.5-43.8S53.7,10,71.3,10c17.2,0,31.7,5.9,43.5,17.7L500,413.4L885.2,27.7C897,15.9,911.5,10,928.7,10z"/></g></g>
</svg>