<svg version="1.1" xmlns="http://www.w3.org/2000/svg" xmlns:xlink="http://www.w3.org/1999/xlink" x="0px" y="0px" viewBox="0 0 1000 1000" enable-background="new 0 0 1000 1000" xml:space="preserve">
<g><g transform="translate(0.000000,511.000000) scale(0.100000,-0.100000)"><path d="M972.4,3901.9c-203.7-44.2-367-136.4-538-307.5C321,3481,261.4,3406.1,217.2,3310C96.2,3056.4,100,3152.4,100,558.3c0-2601.8-3.8-2478.8,119.1-2736.3c90.3-184.5,311.3-403.5,497.7-491.9c165.3-78.8,361.2-124.9,530.4-124.9h117.2l34.6-107.6c88.4-282.5,328.6-551.5,613-689.8c538-259.4,1193.3-82.6,1514.2,409.3c86.5,132.6,167.2,305.5,167.2,357.4c0,26.9,132.6,30.7,1302.8,30.7h1300.9l36.5-115.3c19.2-61.5,76.9-178.7,128.7-257.5c480.4-732.1,1539.2-724.4,2017.6,13.4c40.4,61.5,90.3,167.2,113.4,236.3l42.3,123h513.1c493.8,0,515,1.9,597.6,42.3c157.6,82.6,153.7,53.8,153.7,1083.8c0,497.7-9.6,999.2-21.1,1114.5c-113.4,1176-695.6,2044.5-1698.7,2534.5c-351.6,172.9-743.6,295.9-1124.1,355.5c-259.4,40.4-230.6,3.8-230.6,284.4c-1.9,134.5-13.5,313.2-28.8,397.8c-76.9,434.3-426.6,791.7-864.7,883.9C5741.7,3942.2,1154.9,3942.2,972.4,3901.9z M5878.2,3344.6c121.1-36.5,259.4-155.6,328.6-286.3l51.9-98l9.6-1887l9.6-1885l48-51.9c140.3-149.9,353.6-134.5,451.6,30.8c36.5,63.4,38.4,105.7,44.2,1354.7l5.8,1289.4l103.8-17.3c497.7-76.9,968.5-255.6,1354.7-511.1c190.2-126.8,451.6-380.5,584.2-566.9c242.1-344,395.8-772.5,453.5-1272.1c9.6-96.1,19.2-513.1,19.2-926.2v-755.2h-351.6h-353.6l-23.1,82.6c-101.8,342.1-405.4,653.3-757.1,778.2c-186.4,65.3-453.5,78.8-655.3,34.6c-393.9-88.4-728.3-384.3-866.6-766.7l-44.2-119.1l-1297.1-5.8l-1297.1-3.8l-11.5,65.3c-46.1,244.1-338.2,595.7-601.4,728.3c-393.9,194.1-855.1,167.2-1214.4-71.1c-224.8-149.9-411.2-397.8-484.2-643.7l-25-82.6l-144.1,7.7c-238.3,13.4-401.6,115.3-505.4,309.4l-44.2,80.7V567.9v2411.6l57.6,103.8c67.3,121.1,157.6,201.8,288.2,251.7c92.2,34.6,172.9,36.5,2432.7,36.5C5465,3373.4,5793.6,3369.6,5878.2,3344.6z M2819-1933.9c115.3-61.5,240.2-186.4,299.8-303.6c65.3-128.8,73-357.4,17.3-503.5c-53.8-144.1-178.7-280.5-320.9-351.6c-96.1-48-134.5-55.7-274.8-57.6c-138.4,0-180.6,7.7-271,50c-61.5,28.8-146,88.4-190.2,132.6c-44.2,44.2-103.8,128.8-132.6,190.2c-42.3,90.3-50,132.6-50,270.9c1.9,138.4,9.6,180.6,53.8,272.9c65.3,134.5,209.5,267.1,345.9,322.8C2440.5-1855.2,2684.5-1864.8,2819-1933.9z M7697.9-1912.8c140.3-51.9,278.6-178.7,347.8-319c48-96.1,55.7-134.5,57.6-274.8c0-138.3-7.7-180.6-50-270.9c-65.3-138.4-184.5-257.5-322.8-322.8c-90.3-42.3-132.6-50-270.9-50c-138.4,1.9-180.6,9.6-272.9,53.8c-138.3,67.3-269,211.4-322.8,355.5c-57.6,151.8-48,374.7,23.1,513.1c82.6,157.6,234.4,286.3,399.7,338.2C7384.7-1860.9,7590.3-1870.5,7697.9-1912.8z"/></g></g>
</svg>