<?xml version="1.0" encoding="UTF-8" standalone="no"?><!DOCTYPE svg PUBLIC "-//W3C//DTD SVG 1.1//EN" "http://www.w3.org/Graphics/SVG/1.1/DTD/svg11.dtd"><svg width="100%" height="100%" viewBox="0 0 2332 2188" version="1.1" xmlns="http://www.w3.org/2000/svg" xmlns:xlink="http://www.w3.org/1999/xlink" xml:space="preserve" xmlns:serif="http://www.serif.com/" style="fill-rule:evenodd;clip-rule:evenodd;stroke-linejoin:round;stroke-miterlimit:2;"><rect id="Plan-de-travail1" serif:id="Plan de travail1" x="0" y="0" width="2331.67" height="2187.31" style="fill:none;"/><g><path d="M2084.51,1737.34c-0,-112.323 -59.801,-203.168 -133.741,-203.168l-1604.89,-0c-73.939,-0 -133.741,90.845 -133.741,203.168c0,112.322 59.802,203.167 133.741,203.167l1604.89,0c73.558,0.291 133.741,-90.845 133.741,-203.167Z" style="fill:#fff;fill-rule:nonzero;"/><path d="M1658.67,1021.51c0,-112.322 -64.368,-203.168 -143.954,-203.168l-1158.62,0c-79.587,0 -143.955,90.846 -143.955,203.168c0,112.323 64.368,203.168 143.955,203.168l1158.42,0c79.586,0 144.159,-90.845 144.159,-203.168Z" style="fill:#fff;fill-rule:nonzero;"/><path d="M1282.88,347.358c0,-112.323 -67.925,-203.168 -151.91,-203.168l-766.928,-0c-83.984,-0 -151.91,90.845 -151.91,203.168c0,112.322 67.926,203.167 151.91,203.167l766.928,0c83.985,0 151.91,-91.425 151.91,-203.167Z" style="fill:#fff;fill-rule:nonzero;"/></g></svg>