<svg version="1.1" xmlns="http://www.w3.org/2000/svg" xmlns:xlink="http://www.w3.org/1999/xlink" x="0px" y="0px" viewBox="0 0 1000 1000" enable-background="new 0 0 1000 1000" xml:space="preserve">
<g><path d="M963.4,834.2L769.7,640.6l25.8-25.8L769.7,589l-77.4,77.4L563.2,537.3l155.1-155.2c20.6,7.4,42.2,11.1,64.4,11.1c51.1,0,99.2-19.9,135.4-56c55.8-55.8,71.6-138.8,40.3-211.4l-10.6-24.7l-83.2,83.2l-67,0.9l0.9-63.9l84.8-84.8l-24.7-10.7c-24.2-10.5-49.9-15.8-76.3-15.8c-51.1,0-99.2,19.9-135.3,56c-52.9,52.9-69.9,130.2-44.9,199.9L447.1,421.1L227.7,201.7l25.8-25.8L111.6,34l-77.5,77.4l142,142l25.8-25.8l219.4,219.4L266.2,602c-20.7-7.4-42.4-11.2-64.6-11.2c-51.1,0-99.2,19.9-135.3,56C10.3,702.8-5.5,785.8,26,858.5l10.7,24.6l84.8-84.8l63.9-0.9l-0.9,67l-83.2,83.2l24.7,10.6c24.1,10.4,49.7,15.7,76,15.7c51.2,0,99.2-19.9,135.3-56c52.9-52.9,69.9-130.1,45-199.7l155.2-155.2l129.1,129L589,769.6l25.8,25.8l25.8-25.8l193.6,193.6c17.2,17.3,40.2,26.7,64.5,26.7c24.3,0,47.3-9.5,64.5-26.7C998.9,927.6,998.9,869.7,963.4,834.2L963.4,834.2z M85.8,111.4l25.8-25.8l90.3,90.3l-25.8,25.8L85.8,111.4L85.8,111.4z M344.2,721.1c25.3,58.8,12.5,126-32.7,171.2c-29.2,29.2-68.1,45.3-109.5,45.3c-11.9,0-23.6-1.3-35-4l53.7-53.7l1.6-119.3l-116.2,1.6l-55.4,55.4c-12.2-51.7,2.8-106.2,41.4-144.8c29.2-29.2,68.1-45.4,109.5-45.4c21.4,0,42.2,4.3,61.8,12.8l11.4,4.9l370.4-370.4l-4.9-11.4C614.9,204.5,627.7,137.3,673,92c29.2-29.2,68.1-45.4,109.5-45.4c12,0,23.8,1.4,35.3,4L762.3,106l-1.6,116.2l119.3-1.6l53.8-53.8c12.1,51.6-2.9,106-41.4,144.5c-29.3,29.2-68.2,45.4-109.6,45.4c-21.4,0-42.1-4.3-61.7-12.7l-11.4-4.9L339.3,709.7L344.2,721.1L344.2,721.1z M937.6,937.4c-10.3,10.3-24.1,16.1-38.7,16.1s-28.4-5.7-38.7-16.1L666.6,743.9l77.4-77.4L937.6,860C959,881.4,959,916.1,937.6,937.4L937.6,937.4z"/></g>
</svg>