<svg version="1.1" xmlns="http://www.w3.org/2000/svg" xmlns:xlink="http://www.w3.org/1999/xlink" x="0px" y="0px" viewBox="0 0 1000 1000" enable-background="new 0 0 1000 1000" xml:space="preserve">
<g><g transform="translate(0.000000,511.000000) scale(0.100000,-0.100000)"><path d="M557.7,3142.5c-184-38.3-354.5-182.1-421.6-358.4c-38.3-105.4-38.3-115-34.5-2705.9l5.7-2600.5l51.7-97.7c28.7-53.7,92-134.2,139.9-176.3c172.5-151.4-253-138,4733.4-134.2l4465.1,5.7l105.4,59.4c122.6,69,233.8,205.1,272.1,331.5c19.2,70.9,24.9,569.2,24.9,2656.1c0,2485.5-1.9,2571.8-36.4,2663.7c-47.9,124.6-180.1,262.5-304.7,318.1l-99.6,46l-4417.2,1.9C2612.1,3154,594.1,3150.1,557.7,3142.5z M6820.4,1415.8c97.7-23,184-53.7,187.8-65.1c7.7-23-57.5-454.2-78.6-530.8c-7.7-24.9-32.6-21.1-178.2,28.7c-145.7,49.8-195.5,57.5-387.1,57.5c-193.5,1.9-231.9-3.8-312.4-44.1c-99.7-47.9-157.1-132.2-139.9-203.1c19.2-76.7,122.7-155.2,389-289.4c310.5-157.1,490.6-308.5,563.4-471.4c61.3-139.9,61.3-377.5,0-538.5c-153.3-390.9-584.5-611.3-1199.6-611.3c-272.1,0-442.7,21.1-655.4,84.3c-113.1,32.6-139.9,47.9-139.9,76.7c0,42.2,74.7,507.8,86.2,548.1c7.7,17.2,26.8,15.3,84.3-15.3c159.1-80.5,402.4-136.1,615.2-139.9c241.5-1.9,348.8,24.9,435,111.2c49.8,49.8,63.2,78.6,63.2,141.8c0,105.4-86.2,185.9-323.9,300.9c-505.9,245.3-689.9,461.8-666.9,787.6c30.7,413.9,392.9,724.4,942.9,810.6C6283.8,1481,6619.2,1463.7,6820.4,1415.8z M1914.5,1379.4c38.3-21.1,86.2-61.3,103.5-92c17.2-30.7,105.4-412,197.4-848.9c90.1-436.9,166.7-795.3,168.6-797.2c1.9-1.9,159.1,394.8,348.8,879.6l346.9,885.4l385.2,5.7l385.2,3.8L3361.4,281.3C3093.1-343.4,2838.2-935.6,2796-1033.3l-76.7-176.3l-387.1,3.8l-385.2,5.7L1629-59.8l-316.2,1138.3l-168.6,80.5c-93.9,44.1-262.5,109.2-377.5,143.7c-337.3,103.5-302.8,113.1,433.1,113.1C1795.7,1415.8,1849.3,1413.9,1914.5,1379.4z M4850.4,1381.3c0-30.7-406.3-2431.9-433.1-2556.4l-11.5-53.7h-352.6c-346.9,0-352.6,0-352.6,40.3c0,44.1,415.9,2514.3,433.1,2571.7c9.6,28.7,44.1,32.6,364.1,32.6C4821.6,1415.8,4850.4,1413.9,4850.4,1381.3z M8874.8,1402.4c0-9.6,130.3-601.7,287.5-1316.5c159.1-716.7,287.5-1305,287.5-1308.9c0-3.8-149.5-5.7-333.4-5.7c-302.8,0-335.4,3.8-345,34.5c-3.8,17.3-24.9,107.3-42.1,201.2l-34.5,166.7h-463.8H7769l-53.7-147.6c-28.7-82.4-65.2-172.5-80.5-201.2l-26.8-53.7h-373.7c-293.2,0-373.7,5.7-366,24.9c51.7,128.4,1061.7,2399.3,1092.3,2456.8c28.7,51.7,70.9,90.1,128.4,120.7c78.6,38.3,109.2,42.2,435,42.2C8717.6,1415.8,8874.8,1410.1,8874.8,1402.4z"/><path d="M8179.1,231.5c-92-239.6-172.5-454.2-178.2-477.2l-11.5-44.1h291.3H8572l-7.7,44.1c-51.7,262.5-199.3,914.1-207,914.1C8351.6,668.5,8271.1,473,8179.1,231.5z"/></g></g>
</svg>